# xmcd
#
# Track frame offsets:
# 150
# 13750
# 24765
# 40617
# 54597
# 68152
# 83175
# 97627
# 110305
# 126095
# 140805
# 155412
#
# Disc length: 2229 seconds
#
#
# Revision: 0
# Processed by: cddbd v1.5.1PL0 Copyright (c) Steve Scherf et al.
# Submitted via: FreeRIP 2.91 
#
DISCID=8d08b30c
DTITLE=Special Consensus - Everything's Alright
DYEAR=2005
DGENRE=Bluegrass
TTITLE0=What Will Become Of Me
TTITLE1=Can't Go Back
TTITLE2=How Many Times
TTITLE3=Two Minus One
TTITLE4=The Lights Are Out (But Somebody's Home)
TTITLE5=Beginner's Luck
TTITLE6=Lord Show Me The Righteous Pathway
TTITLE7=Everything's Alright
TTITLE8=She's Walking Through My Memory
TTITLE9=Old Town Ceili
TTITLE10=Carolina Smokey Mountain Home
TTITLE11=Today Has Been A Lonesome Day
EXTD=
EXTT0=
EXTT1=
EXTT2=
EXTT3=
EXTT4=
EXTT5=
EXTT6=
EXTT7=
EXTT8=
EXTT9=
EXTT10=
EXTT11=
PLAYORDER=
